<svg width="58" height="58" fill="none" xmlns="http://www.w3.org/2000/svg"><g clip-path="url(#clip0)" fill="#E2DCC8"><path d="M40.202 26.152c-3.675 0-4.183 3.662-4.183 3.662h7.807s.05-3.662-3.624-3.662zM22.49 29.814h-6.917v6.357h6.573c.992-.025 2.849-.305 2.849-3.09 0-3.305-2.505-3.267-2.505-3.267z"/><path d="M29 .518C13.271.518.518 13.27.518 29S13.27 57.482 29 57.482 57.482 44.73 57.482 29 44.73.518 29 .518zm6.002 17.496h9.803v2.925h-9.803v-2.925zm-4.96 15.36c0 7.248-7.552 7.019-7.552 7.019H10.13V16.615h12.36c3.764 0 6.726 2.073 6.726 6.333s-3.624 4.526-3.624 4.526c4.781 0 4.45 5.9 4.45 5.9zm18.336-.394H36.057c0 4.412 4.183 4.132 4.183 4.132 3.955 0 3.815-2.556 3.815-2.556h4.183c0 6.79-8.138 6.32-8.138 6.32-9.752 0-9.13-9.091-9.13-9.091s-.012-9.13 9.13-9.13c9.626.013 8.278 10.325 8.278 10.325z"/><path d="M24.168 23.316c0-2.466-1.678-2.466-1.678-2.466h-6.917v5.302h6.484c1.12 0 2.111-.369 2.111-2.836z"/></g><defs><clipPath id="clip0"><path fill="#fff" d="M0 0h58v58H0z"/></clipPath></defs></svg>