<svg width="58" height="58" fill="none" xmlns="http://www.w3.org/2000/svg"><path d="M39.572 7.854a10.605 10.605 0 0110.574 10.573v21.145a10.606 10.606 0 01-10.574 10.574H18.427A10.606 10.606 0 017.854 39.572V18.427A10.605 10.605 0 0118.427 7.854h21.145zm0-4.229H18.427c-8.141 0-14.802 6.66-14.802 14.802v21.145c0 8.142 6.66 14.803 14.802 14.803h21.145c8.142 0 14.803-6.66 14.803-14.803V18.427c0-8.141-6.66-14.802-14.803-14.802z" fill="#E2DCC8"/><path d="M42.744 18.427a3.172 3.172 0 112.933-1.956 3.166 3.166 0 01-2.933 1.956zM29 20.541A8.458 8.458 0 1120.541 29 8.468 8.468 0 0129 20.541zm0-4.229a12.687 12.687 0 100 25.375 12.687 12.687 0 000-25.374z" fill="#E2DCC8"/></svg>