<svg width="58" height="47" fill="none" xmlns="http://www.w3.org/2000/svg"><path d="M58 5.472a24.474 24.474 0 01-6.833 1.84A11.74 11.74 0 0056.403.867a23.962 23.962 0 01-7.56 2.826A11.981 11.981 0 0044.88.958 12.027 12.027 0 0040.154 0c-6.576 0-11.897 5.22-11.897 11.655-.005.895.098 1.787.307 2.658a34.045 34.045 0 01-13.556-3.516A33.893 33.893 0 014.034 2.13a11.468 11.468 0 00-1.618 5.857c0 4.041 2.118 7.614 5.316 9.706a11.823 11.823 0 01-5.41-1.455v.144c0 5.653 4.108 10.356 9.545 11.426a12.231 12.231 0 01-3.134.41c-.751 0-1.5-.072-2.237-.217 1.512 4.63 5.911 7.998 11.123 8.094a24.19 24.19 0 01-14.78 4.992A24.653 24.653 0 010 40.917a33.79 33.79 0 0018.214 5.268c21.915 0 33.887-17.764 33.887-33.171 0-.505-.013-1.01-.038-1.504A23.925 23.925 0 0058 5.472z" fill="#E2DCC8"/></svg>