<svg width="58" height="58" fill="none" xmlns="http://www.w3.org/2000/svg"><g clip-path="url(#clip0)"><path d="M53.361 0H4.956C2.31 0 0 1.903 0 4.517V53.03C0 55.658 2.31 58 4.956 58h48.391C56.007 58 58 55.642 58 53.03V4.517C58.016 1.903 56.006 0 53.361 0zM17.98 48.346H9.67V22.51h8.31v25.835zm-3.867-29.763h-.06c-2.66 0-4.381-1.98-4.381-4.457 0-2.523 1.767-4.456 4.486-4.456s4.382 1.918 4.442 4.456c-.002 2.478-1.723 4.457-4.487 4.457zm34.234 29.763h-8.31V34.22c0-3.384-1.208-5.696-4.215-5.696-2.296 0-3.656 1.553-4.26 3.067-.227.543-.288 1.284-.288 2.04v14.715h-8.309V22.51h8.31v3.596c1.209-1.722 3.097-4.2 7.493-4.2 5.454 0 9.58 3.595 9.58 11.346l-.001 15.093z" fill="#E2DCC8"/></g><defs><clipPath id="clip0"><path fill="#fff" d="M0 0h58v58H0z"/></clipPath></defs></svg>